#!OML:ASF H:\Not Pregnant\Project 1\Capture day 1\Session 1\non-pregnant.ASF
:FULLY-SPECIFIED
:DEGREES
1922
root -4.32799 15.7018 31.7399 -554.539 -84.2979 566.604
lowerback 0.611505 3.38687 6.93848
upperback -8.15736 4.69217 0.00334125
thorax -8.4106 1.71075 -4.19257
lowerneck 16.1481 -7.83322 -31.4537
upperneck -2.8792 -17.423 38.967
head 3.36945 -10.7422 19.7674
rclavicle -1.81391e-015 -1.43125e-014
rhumerus -37.797 -8.78328 -78.7345
rradius 27.9495
rwrist 24.473
rhand -7.82049 5.95572
rfingers 7.12502
rthumb 18.0816 -23.2238
lclavicle -1.81391e-015 -1.43125e-014
lhumerus -51.8331 5.83889 79.2604
lradius 33.3206
lwrist 35.5074
lhand -16.6979 -12.0155
lfingers 7.12502
lthumb 9.52685 17.7492
rfemur -27.798 2.20428 25.5196
rtibia 37.6453
rfoot -24.0182 5.91018
rtoes -12.6481
lfemur -30.0187 -3.41164 -20.3957
ltibia 40.674
lfoot -22.1616 0.319546
ltoes -25.4275
1923
root -4.30943 15.6989 31.7646 -554.645 -84.1298 566.678
lowerback 0.857539 3.4462 7.10861
upperback -8.15607 4.8055 0.00478048
thorax -8.53014 1.74949 -4.30915
lowerneck 16.1126 -7.84175 -31.4354
upperneck -2.95683 -17.3958 38.9724
head 3.34349 -10.7243 19.7654
rclavicle -2.45996e-015 2.38542e-015
rhumerus -37.5933 -8.53932 -78.996
rradius 27.8726
rwrist 24.2947
rhand -7.89523 5.92702
rfingers 7.12502
rthumb 18.0097 -23.2592
lclavicle -2.45996e-015 2.38542e-015
lhumerus -51.9108 6.07839 79.6659
lradius 32.9824
lwrist 35.5294
lhand -16.5099 -11.7812
lfingers 7.12502
lthumb 9.70819 17.975
rfemur -27.848 2.44488 25.4763
rtibia 37.6568
rfoot -23.9326 5.94792
rtoes -12.5577
lfemur -30.2548 -3.36879 -20.3433
ltibia 41.0641
lfoot -22.4506 0.219391
ltoes -26.1452
1924
root -4.29087 15.6965 31.7908 -554.387 -83.9637 566.399
lowerback 1.09679 3.50219 7.24561
upperback -8.15531 4.91262 0.0042762
thorax -8.64859 1.78721 -4.40931
lowerneck 16.0583 -7.85173 -31.4377
upperneck -3.02337 -17.3727 38.9783
head 3.32812 -10.7069 19.7656
rclavicle -2.72335e-014 -8.34896e-015
rhumerus -37.3753 -8.30343 -79.2366
rradius 27.7767
rwrist 24.174
rhand -7.98029 5.86682
rfingers 7.12502
rthumb 17.9278 -23.3269
lclavicle -2.72335e-014 -8.34896e-015
lhumerus -51.97 6.37258 80.0236
lradius 32.6494
lwrist 35.6239
lhand -16.0608 -11.5138
lfingers 7.12502
lthumb 10.1415 18.2218
rfemur -27.9193 2.68389 25.3897
rtibia 37.6768
rfoot -23.8605 5.97691
rtoes -12.5428
lfemur -30.4901 -3.28632 -20.3287
ltibia 41.4312
lfoot -22.7663 0.102936
ltoes -26.9597
1925
root -4.27322 15.6948 31.8163 -553.764 -83.8012 565.743
lowerback 1.33349 3.5584 7.31997
upperback -8.14616 5.01653 -0.00327273
thorax -8.75981 1.82827 -4.48236
lowerneck 15.9981 -7.86429 -31.442
upperneck -3.08903 -17.3539 38.991
head 3.3171 -10.6917 19.7688
rclavicle -1.98536e-014 -3.57812e-015
rhumerus -37.1512 -8.10449 -79.4551
rradius 27.6616
rwrist 24.124
rhand -8.10879 5.76982
rfingers 7.12502
rthumb 17.8042 -23.4352
lclavicle -1.98536e-014 -3.57812e-015
lhumerus -52.0092 6.71449 80.3012
lradius 32.3282
lwrist 35.7452
lhand -15.3286 -11.1081
lfingers 7.12502
lthumb 10.8478 18.5917
rfemur -27.9778 2.9644 25.2576
rtibia 37.7108
rfoot -23.8005 5.92522
rtoes -12.6044
lfemur -30.6846 -3.14552 -20.3502
ltibia 41.7651
lfoot -23.1129 -0.0454385
ltoes -27.7066
1926
root -4.25743 15.6939 31.8374 -552.878 -83.6403 564.776
lowerback 1.5783 3.60729 7.28071
upperback -8.11493 5.1055 -0.00169216
thorax -8.86144 1.87227 -4.48248
lowerneck 15.9321 -7.87629 -31.4435
upperneck -3.15885 -17.3315 39.0082
head 3.30499 -10.6748 19.774
rclavicle -1.3418e-015 7.95139e-015
rhumerus -36.9177 -7.96195 -79.6421
rradius 27.5246
rwrist 24.1749
rhand -8.24702 5.67527
rfingers 7.12502
rthumb 17.6711 -23.5417
lclavicle -1.3418e-015 7.95139e-015
lhumerus -52.036 7.1385 80.4518
lradius 32.0473
lwrist 35.9649
lhand -14.3185 -10.3836
lfingers 7.12502
lthumb 11.8219 19.2627
rfemur -27.971 3.34658 25.0956
rtibia 37.7583
rfoot -23.7502 5.70176
rtoes -12.7919
lfemur -30.7866 -2.9211 -20.3891
ltibia 42.0584
lfoot -23.4877 -0.205356
ltoes -28.3404
